<mxfile host="app.diagrams.net" agent="Mozilla/5.0 (Windows NT 10.0; Win64; x64) AppleWebKit/537.36 (KHTML, like Gecko) Chrome/137.0.0.0 Safari/537.36" version="27.1.6">
  <diagram name="Page-1" id="d9b1e647-80fa-b4a2-5024-87a742678bcc">
    <mxGraphModel dx="1042" dy="562" grid="1" gridSize="10" guides="1" tooltips="1" connect="1" arrows="1" fold="1" page="1" pageScale="1" pageWidth="1100" pageHeight="850" background="none" math="0" shadow="0">
      <root>
        <mxCell id="0" />
        <mxCell id="1" parent="0" />
        <mxCell id="a0ukpd8Vfspqn76z_Mzr-1" value="&lt;font style=&quot;font-size: 20px; color: rgb(255, 255, 255);&quot; face=&quot;Verdana&quot;&gt;&lt;b style=&quot;&quot;&gt;Q3&lt;/b&gt;&lt;/font&gt;" style="shape=step;perimeter=stepPerimeter;whiteSpace=wrap;html=1;fixedSize=1;fillColor=#3399FF;strokeColor=#004C99;strokeWidth=5;" vertex="1" parent="1">
          <mxGeometry x="40" y="70" width="530" height="80" as="geometry" />
        </mxCell>
        <mxCell id="a0ukpd8Vfspqn76z_Mzr-2" value="&lt;font face=&quot;Verdana&quot; style=&quot;font-size: 20px; color: rgb(255, 255, 255);&quot;&gt;&lt;b&gt;Q4&lt;/b&gt;&lt;/font&gt;" style="shape=step;perimeter=stepPerimeter;whiteSpace=wrap;html=1;fixedSize=1;strokeWidth=5;strokeColor=#004C99;fillColor=#3399FF;" vertex="1" parent="1">
          <mxGeometry x="550" y="70" width="530" height="80" as="geometry" />
        </mxCell>
        <mxCell id="a0ukpd8Vfspqn76z_Mzr-4" value="&lt;font style=&quot;font-size: 36px; color: rgb(0, 102, 204);&quot; face=&quot;Verdana&quot;&gt;Тестирование 2025&lt;/font&gt;" style="text;strokeColor=none;fillColor=none;html=1;fontSize=24;fontStyle=1;verticalAlign=middle;align=center;strokeWidth=1;labelBackgroundColor=none;labelBorderColor=none;textShadow=0;spacingTop=2;spacingLeft=2;" vertex="1" parent="1">
          <mxGeometry x="470" y="10" width="140" height="40" as="geometry" />
        </mxCell>
        <mxCell id="a0ukpd8Vfspqn76z_Mzr-7" value="" style="endArrow=none;html=1;rounded=0;entryX=-0.002;entryY=0.977;entryDx=0;entryDy=0;entryPerimeter=0;fontSize=12;strokeWidth=5;strokeColor=#004C99;" edge="1" parent="1" target="a0ukpd8Vfspqn76z_Mzr-2">
          <mxGeometry width="50" height="50" relative="1" as="geometry">
            <mxPoint x="549" y="640" as="sourcePoint" />
            <mxPoint x="560" y="200" as="targetPoint" />
          </mxGeometry>
        </mxCell>
      </root>
    </mxGraphModel>
  </diagram>
</mxfile>
